<?xml version="1.0" encoding="utf-8"?>
<svg version="1.1" id="Layer_1" xmlns="http://www.w3.org/2000/svg" xmlns:xlink="http://www.w3.org/1999/xlink" height="1em" width="0.817504em"
	 viewBox="0 0 923.2 1129.2" style="enable-background:new 0 0 923.2 1129.2;" xml:space="preserve">
<g>
	<path fill="#EE7616"  fill-opacity="0.8" d="M434.6,768L261.9,482.6L45.2,316.8l190.6,47.7l185.8,46L746.1,0l13,72.6L434.6,768z"/>
	<path fill="#2E5C9B"  fill-opacity="0.8" d="M421.6,410.5L2.4,400.8l260,117.5L434.6,768L759,72.6l164.1-2.7l-165.7-8.1L421.6,410.5z"/>
	<path fill="#3FB65B"  fill-opacity="0.8" d="M746.1,0L421.6,410.5L183.3,256.2L434.6,768l86.1-185.2L759,72.6l164.1-2.7L746.1,0z"/>


	<path fill="#202934" d="M97.2,1071.4c-7.6,0-13.3-2.5-17.8-7c-3.8-4.4-6.4-10.8-6.4-19.1V880.8H19.7c-6.4,0-10.8-1.9-14.6-5.7
		c-3.2-3.8-5.1-8.9-5.1-15.2c0-7,1.9-12.1,5.1-15.2c3.2-3.8,8.3-5.1,14.6-5.1h153.7c6.4,0,10.8,1.9,14.6,5.1
		c3.2,3.8,5.1,8.9,5.1,15.2s-1.9,11.4-5.1,15.2c-3.2,3.8-8.3,5.7-14.6,5.7h-53.4V1046c0,8.3-1.9,14.6-5.7,19.1
		C110.5,1069.5,104.8,1071.4,97.2,1071.4L97.2,1071.4z"/>
	<path fill="#202934" d="M210.3,1071.4c-10.8,0-20.3-2.5-29.2-7c-8.9-4.4-15.2-10.8-20.3-18.4c-5.1-7.6-7-16.5-7-26.7
		c0-11.4,2.5-21,8.3-28c5.7-7,14.6-11.4,27.3-14.6c12.7-3.2,29.2-4.4,50.2-4.4h10.8v25.4h-10.8c-10.2,0-18.4,0.6-24.8,1.9
		s-10.8,3.2-13.3,5.7c-2.5,2.5-3.8,7-3.8,11.4c0,6.4,1.9,10.8,5.7,15.2c3.8,3.8,9.5,5.7,17.2,5.7c5.7,0,10.8-1.3,15.2-4.4
		s8.3-7,10.8-12.1c2.5-5.1,3.8-10.8,3.8-17.2v-37.5c0-9.5-1.9-16.5-6.4-20.3c-3.8-3.8-10.8-5.7-20.3-5.7c-5.7,0-11.4,0.6-17.8,1.9
		s-13.3,3.8-21,7c-4.4,1.9-8.3,2.5-12.1,1.3c-3.2-1.3-6.4-3.2-7.6-6.4c-1.9-3.2-2.5-6.4-2.5-10.2s1.3-7.6,3.2-10.8
		c1.9-3.8,5.1-6.4,10.2-8.3c9.5-3.8,18.4-7,26.7-8.3c8.3-1.3,15.9-2.5,22.9-2.5c15.2,0,28,2.5,38.1,7.6
		c10.2,5.1,17.2,12.1,22.2,22.2c5.1,10.2,7.6,22.9,7.6,38.8v73.1c0,8.3-1.9,14-5.7,18.4c-3.8,4.4-8.9,6.4-15.9,6.4
		c-7,0-12.1-1.9-15.9-6.4s-5.7-10.8-5.7-18.4v-1.9c-1.3,4.4-1.9,6.4-5.7,10.8c-3.8,5.1-8.9,9.5-15.2,12.1
		C224.9,1070.2,217.9,1071.4,210.3,1071.4L210.3,1071.4z"/>
	<path fill="#202934" d="M361.5,841.5c-1.3-1.3-3.2-2.5-5.1-3.8c-3.2-1.9-7-2.5-11.4-2.5c-7.6,0-13.3,1.9-17.2,6.4
		c-3.8,4.4-5.7,10.2-5.7,18.4V1046c0,8.3,1.9,14.6,5.7,19.1s9.5,6.4,17.2,6.4c4.4,0,8.3-0.6,11.4-2.5c1.9-1.3,3.8-2.5,5.1-3.8
		c3.8-4.4,5.7-10.2,5.7-19.1V860.5C367.2,852.3,365.3,845.9,361.5,841.5L361.5,841.5z"/>
	<path fill="#202934" d="M430.1,841.5c-1.3-1.3-3.2-2.5-5.1-3.8c-3.2-1.9-7-2.5-11.4-2.5c-7.6,0-13.3,1.9-17.2,6.4
		c-3.8,4.4-5.7,10.2-5.7,18.4V1046c0,8.3,1.9,14.6,5.7,19.1s9.5,6.4,17.2,6.4c4.4,0,8.3-0.6,11.4-2.5c1.9-1.3,3.8-2.5,5.1-3.8
		c3.8-4.4,5.7-10.2,5.7-19.1V860.5C435.8,852.3,433.9,845.9,430.1,841.5L430.1,841.5z"/>
	<path fill="#202934" d="M509.5,1129.2c-5.7,0-10.2-1.3-14-4.4s-5.7-7-6.4-12.1c-0.6-5.1,0-10.2,2.5-15.2l17.2-38.1l-52.1-122.6
		c-1.9-5.7-2.5-10.8-1.9-15.9s3.2-8.9,7-11.4c3.8-3.2,9.5-4.4,16.5-4.4c5.7,0,10.2,1.3,14,3.8c3.8,2.5,7,7.6,9.5,15.2l32.4,84.5
		l33.7-85.1c3.2-7.6,6.4-12.7,10.2-15.2c3.8-2.5,8.9-3.8,15.2-3.8c5.7,0,10.2,1.3,13.3,4.4c3.2,3.2,5.1,7,6.4,11.4
		c0.6,5.1,0,10.2-2.5,15.9l-75,173.4c-3.2,7.6-7,12.1-10.8,15.2C520.3,1128,515.2,1129.2,509.5,1129.2L509.5,1129.2z"/>
	<path fill="#202934" d="M817,1129.2c-5.7,0-10.2-1.3-14-4.4s-5.7-7-6.4-12.1c-0.6-5.1,0-10.2,2.5-15.2l17.2-38.1l-52.1-122
		c-1.9-5.7-2.5-10.8-1.9-15.9c0.6-5.1,3.2-8.9,7-11.4c3.8-3.2,9.5-4.4,16.5-4.4c5.7,0,10.2,1.3,14,3.8c3.8,2.5,7,7.6,9.5,15.2
		l32.4,84.5l33.7-85.1c3.2-7.6,6.4-12.7,10.2-15.2c3.8-2.5,8.9-3.8,15.2-3.8c5.7,0,10.2,1.3,13.3,4.4c3.2,3.2,5.1,7,6.4,11.4
		c0.6,5.1,0,10.2-2.5,15.9l-75,173.4c-3.2,7.6-7,12.1-10.8,15.2C827.8,1128,822.7,1129.2,817,1129.2L817,1129.2z"/>
	<path fill="#202934" d="M677.2,1071.4c-8.3,0-14.6-1.9-19.1-6.4c-4.4-4.4-6.4-10.8-6.4-18.4v-101h-12.1c-6.4,0-11.4-1.9-14.6-5.1
		c-3.2-3.2-5.1-7.6-5.1-13.3c0-6.4,1.9-10.8,5.1-14c3.2-3.2,8.3-4.4,14.6-4.4h12.1c0-23.5,5.7-37.5,17.8-48.9
		c12.1-11.4,29.9-18.4,53.4-21l10.8-1.3c5.7-0.6,10.8,0.6,14,2.5c3.2,1.9,5.7,5.1,7,8.3c1.3,3.2,1.3,7,0.6,10.8
		c-0.6,3.8-1.9,7-4.4,9.5c-2.5,2.5-5.7,4.4-9.5,4.4l-4.4,0.6c-12.1,0.6-21,3.8-26,8.3c-5.1,4.4-7.6,12.1-7.6,21.6v5.7h24.1
		c6.4,0,11.4,1.3,14.6,4.4s5.1,7.6,5.1,14c0,5.7-1.9,10.2-5.1,13.3c-3.2,3.2-8.3,5.1-14.6,5.1h-24.1v101
		C702.6,1063.2,694.3,1071.4,677.2,1071.4L677.2,1071.4z"/>
</g>
</svg>
